General
ID                               : 2159 (0x86F)
Complete name                    : F:HDTV LivePSY Today Show120914 WNBC 4 Today - Psy - Gangnam Style_cut by AeisHDKpop.ts
Format                           : MPEG-TS
File size                        : 476 MiB
Duration                         : 4mn 13s
Start time                       : UTC 2012-09-14 12:51:40
End time                         : UTC 2012-09-14 12:55:52
Overall bit rate mode            : Variable
Overall bit rate                 : 15.7 Mbps

Video
ID                               : 49 (0x31)
Menu ID                          : 3 (0x3)
Format                           : MPEG Video
Format version                   : Version 2
Format profile                   : Main@High
Format settings, BVOP            : Yes
Format settings, Matrix          : Custom
Format settings, GOP             : M=3, N=48
Codec ID                         : 2
Duration                         : 4mn 11s
Bit rate mode                    : Variable
Bit rate                         : 14.4 Mbps
Maximum bit rate                 : 24.0 Mbps
Width                            : 1 920 pixels
Height                           : 1 080 pixels
Display aspect ratio             : 16:9
Active Format Description        : Pillarbox 4:3 image
Frame rate                       : 29.970 fps
Color space                      : YUV
Chroma subsampling               : 4:2:0
Bit depth                        : 8 bits
Scan type                        : Interlaced
Scan order                       : Top Field First
Compression mode                 : Lossy
Bits/(Pixel*Frame)               : 0.231
Stream size                      : 431 MiB (91%)

Audio #1
ID                               : 52 (0x34)
Menu ID                          : 3 (0x3)
Format                           : AC-3
Format/Info                      : Audio Coding 3
Mode extension                   : CM (complete main)
Codec ID                         : 129
Duration                         : 4mn 13s
Bit rate mode                    : Constant
Bit rate                         : 384 Kbps
Channel(s)                       : 6 channels
Channel positions                : Front: L C R, Side: L R, LFE
Sampling rate                    : 48.0 KHz
Bit depth                        : 16 bits
Compression mode                 : Lossy
Delay relative to video          : -328ms
Stream size                      : 11.6 MiB (2%)
Language                         : English

Audio #2
ID                               : 53 (0x35)
Menu ID                          : 3 (0x3)
Format                           : AC-3
Format/Info                      : Audio Coding 3
Mode extension                   : CM (complete main)
Codec ID                         : 129
Duration                         : 4mn 13s
Bit rate mode                    : Constant
Bit rate                         : 192 Kbps
Channel(s)                       : 2 channels
Channel positions                : Front: L R
Sampling rate                    : 48.0 KHz
Bit depth                        : 16 bits
Compression mode                 : Lossy
Delay relative to video          : -404ms
Stream size                      : 5.80 MiB (1%)
Language                         : Spanish

Menu
ID                               : 48 (0x30)
Menu ID                          : 3 (0x3)
Duration                         : 4mn 13s
List                             : 49 (0x31) (MPEG Video) / 52 (0x34) (AC-3, English) / 53 (0x35) (AC-3, Spanish)
Language                         :  / English / Spanish
Service name                     : WNBC   
Service channel number           : 4-1
Service type                     : Digital television
